<svg width="21" height="21" viewBox="0 0 21 21" fill="none" xmlns="http://www.w3.org/2000/svg">
<g clip-path="url(#clip0_152_201)">
<g clip-path="url(#clip1_152_201)">
<path d="M20.2076 16.2613C20.1765 16.1679 20.1272 16.0815 20.0627 16.007C19.9981 15.9326 19.9196 15.8717 19.8315 15.8276C19.7434 15.7836 19.6475 15.7573 19.5492 15.7503C19.451 15.7433 19.3523 15.7558 19.2588 15.7869L17.6257 16.3316L14.9163 10.9129C14.8541 10.7884 14.7584 10.6837 14.64 10.6105C14.5216 10.5374 14.3852 10.4986 14.246 10.4985H6.74603V8.24849H11.996C12.1949 8.24849 12.3857 8.16947 12.5264 8.02882C12.667 7.88816 12.746 7.6974 12.746 7.49849C12.746 7.29958 12.667 7.10881 12.5264 6.96816C12.3857 6.82751 12.1949 6.74849 11.996 6.74849H6.74603V5.90474C7.45302 5.72219 8.06917 5.28807 8.47898 4.68373C8.88879 4.0794 9.06413 3.34635 8.97212 2.62199C8.88011 1.89763 8.52709 1.23169 7.97921 0.748996C7.43133 0.266304 6.72621 0 5.99603 0C5.26585 0 4.56074 0.266304 4.01286 0.748996C3.46498 1.23169 3.11195 1.89763 3.01994 2.62199C2.92794 3.34635 3.10327 4.0794 3.51308 4.68373C3.92289 5.28807 4.53904 5.72219 5.24603 5.90474V6.91818C3.6289 7.28778 2.20449 8.23993 1.24468 9.59288C0.284866 10.9458 -0.143142 12.6048 0.0423486 14.2533C0.227839 15.9017 1.01384 17.4241 2.25032 18.5299C3.48681 19.6357 5.0872 20.2475 6.74603 20.2485C9.88853 20.2485 12.717 18.1194 13.4726 15.186C13.4972 15.0906 13.5028 14.9912 13.489 14.8937C13.4753 14.7961 13.4424 14.7022 13.3924 14.6173C13.3423 14.5324 13.276 14.4582 13.1973 14.399C13.1186 14.3397 13.0289 14.2965 12.9335 14.2719C12.8381 14.2473 12.7388 14.2417 12.6412 14.2555C12.5436 14.2692 12.4497 14.3021 12.3649 14.3521C12.28 14.4022 12.2058 14.4685 12.1465 14.5472C12.0873 14.6259 12.0441 14.7156 12.0195 14.811C11.442 17.061 9.17509 18.7485 6.74603 18.7485C5.48528 18.7481 4.26678 18.294 3.31325 17.4692C2.35971 16.6444 1.73483 15.504 1.55281 14.2565C1.37078 13.0089 1.64378 11.7375 2.32189 10.6747C3.00001 9.61184 4.03796 8.8285 5.24603 8.46786V11.2485C5.24603 11.4474 5.32505 11.6382 5.4657 11.7788C5.60635 11.9195 5.79712 11.9985 5.99603 11.9985H13.782L16.5748 17.5841C16.6557 17.7455 16.7921 17.8723 16.959 17.9411C17.1259 18.01 17.312 18.0164 17.4832 17.9591L19.7332 17.2091C19.9217 17.1462 20.0776 17.0111 20.1665 16.8334C20.2554 16.6556 20.2702 16.4499 20.2076 16.2613ZM4.49603 2.99849C4.49603 2.70182 4.584 2.41181 4.74883 2.16513C4.91365 1.91846 5.14792 1.7262 5.42201 1.61267C5.69609 1.49914 5.99769 1.46943 6.28867 1.52731C6.57964 1.58519 6.84691 1.72805 7.05669 1.93783C7.26647 2.14761 7.40933 2.41488 7.46721 2.70585C7.52509 2.99682 7.49538 3.29842 7.38185 3.57251C7.26832 3.8466 7.07606 4.08087 6.82939 4.24569C6.58271 4.41051 6.2927 4.49849 5.99603 4.49849C5.59821 4.49849 5.21668 4.34045 4.93537 4.05915C4.65407 3.77784 4.49603 3.39631 4.49603 2.99849Z" fill="black"/>
</g>
</g>
<defs>
<clipPath id="clip0_152_201">
<rect width="20.2458" height="20.2485" fill="white"/>
</clipPath>
<clipPath id="clip1_152_201">
<rect width="24" height="24" fill="white" transform="translate(-3.75403 -1.5)"/>
</clipPath>
</defs>
</svg>
