<svg width="78" height="78" viewBox="0 0 78 78" fill="none" xmlns="http://www.w3.org/2000/svg">
<path d="M56.1225 27.8775C56.4014 28.1561 56.6227 28.487 56.7737 28.8512C56.9247 29.2154 57.0024 29.6057 57.0024 30C57.0024 30.3942 56.9247 30.7846 56.7737 31.1488C56.6227 31.513 56.4014 31.8439 56.1225 32.1225L35.1225 53.1225C34.8439 53.4014 34.513 53.6227 34.1488 53.7737C33.7846 53.9246 33.3943 54.0023 33 54.0023C32.6058 54.0023 32.2154 53.9246 31.8512 53.7737C31.487 53.6227 31.1561 53.4014 30.8775 53.1225L21.8775 44.1225C21.3146 43.5596 20.9983 42.7961 20.9983 42C20.9983 41.2039 21.3146 40.4404 21.8775 39.8775C22.4404 39.3146 23.2039 38.9983 24 38.9983C24.7961 38.9983 25.5596 39.3146 26.1225 39.8775L33 46.7587L51.8775 27.8775C52.1561 27.5986 52.487 27.3773 52.8512 27.2263C53.2154 27.0753 53.6058 26.9976 54 26.9976C54.3943 26.9976 54.7846 27.0753 55.1488 27.2263C55.513 27.3773 55.8439 27.5986 56.1225 27.8775ZM78 39C78 46.7135 75.7127 54.2537 71.4273 60.6672C67.1419 67.0807 61.051 72.0795 53.9247 75.0313C46.7983 77.9831 38.9567 78.7554 31.3915 77.2506C23.8262 75.7458 16.8771 72.0314 11.4229 66.5771C5.9686 61.1229 2.25421 54.1738 0.749391 46.6085C-0.755432 39.0433 0.0168981 31.2017 2.96872 24.0753C5.92053 16.949 10.9193 10.8581 17.3328 6.57268C23.7463 2.28731 31.2865 0 39 0C49.3401 0.0109193 59.2536 4.12334 66.5651 11.4349C73.8767 18.7464 77.9891 28.6599 78 39ZM72 39C72 32.4732 70.0646 26.093 66.4385 20.6662C62.8124 15.2394 57.6585 11.0097 51.6286 8.51197C45.5986 6.01428 38.9634 5.36077 32.562 6.63408C26.1607 7.9074 20.2806 11.0503 15.6655 15.6655C11.0504 20.2806 7.90741 26.1606 6.6341 32.562C5.36079 38.9634 6.0143 45.5986 8.51199 51.6285C11.0097 57.6585 15.2394 62.8124 20.6662 66.4385C26.093 70.0646 32.4732 72 39 72C47.7491 71.9901 56.137 68.5101 62.3236 62.3235C68.5101 56.137 71.9901 47.7491 72 39Z" fill="#36454F"/>
</svg>
