<svg width="10" height="9" viewBox="0 0 10 9" fill="none" xmlns="http://www.w3.org/2000/svg">
<g clip-path="url(#clip0_174_126)">
<path d="M9 1.5H7.125V1.125C7.125 0.826631 7.00647 0.540483 6.7955 0.329505C6.58452 0.118526 6.29837 0 6 0H3.75C3.45163 0 3.16548 0.118526 2.9545 0.329505C2.74353 0.540483 2.625 0.826631 2.625 1.125V1.5H0.75C0.551088 1.5 0.360322 1.57902 0.21967 1.71967C0.0790176 1.86032 0 2.05109 0 2.25V8.25C0 8.44891 0.0790176 8.63968 0.21967 8.78033C0.360322 8.92098 0.551088 9 0.75 9H9C9.19891 9 9.38968 8.92098 9.53033 8.78033C9.67098 8.63968 9.75 8.44891 9.75 8.25V2.25C9.75 2.05109 9.67098 1.86032 9.53033 1.71967C9.38968 1.57902 9.19891 1.5 9 1.5ZM3.375 1.125C3.375 1.02554 3.41451 0.930161 3.48484 0.859835C3.55516 0.789509 3.65054 0.75 3.75 0.75H6C6.09946 0.75 6.19484 0.789509 6.26517 0.859835C6.33549 0.930161 6.375 1.02554 6.375 1.125V1.5H3.375V1.125ZM9 2.25V4.20047C7.73427 4.88943 6.31609 5.25026 4.875 5.25C3.43397 5.25026 2.01582 4.8896 0.75 4.20094V2.25H9ZM9 8.25H0.75V5.04562C2.03434 5.67384 3.44525 6.00028 4.875 6C6.30478 6.00003 7.71566 5.67344 9 5.04516V8.25ZM3.75 4.125C3.75 4.02554 3.78951 3.93016 3.85984 3.85984C3.93016 3.78951 4.02554 3.75 4.125 3.75H5.625C5.72446 3.75 5.81984 3.78951 5.89017 3.85984C5.96049 3.93016 6 4.02554 6 4.125C6 4.22446 5.96049 4.31984 5.89017 4.39016C5.81984 4.46049 5.72446 4.5 5.625 4.5H4.125C4.02554 4.5 3.93016 4.46049 3.85984 4.39016C3.78951 4.31984 3.75 4.22446 3.75 4.125Z" fill="#36454F"/>
</g>
<defs>
<clipPath id="clip0_174_126">
<rect width="9.75" height="9" fill="white"/>
</clipPath>
</defs>
</svg>
