<svg width="18" height="18" viewBox="0 0 18 18" fill="none" xmlns="http://www.w3.org/2000/svg">
<g clip-path="url(#clip0_152_153)">
<path d="M7.90625 16.1562C7.90625 16.4298 7.79266 16.6921 7.59047 16.8855C7.38829 17.0789 7.11406 17.1875 6.82812 17.1875H1.07812C0.792188 17.1875 0.517963 17.0789 0.315775 16.8855C0.113588 16.6921 0 16.4298 0 16.1562V1.03125C0 0.757745 0.113588 0.495443 0.315775 0.302046C0.517963 0.108649 0.792188 0 1.07812 0H6.82812C7.11406 0 7.38829 0.108649 7.59047 0.302046C7.79266 0.495443 7.90625 0.757745 7.90625 1.03125C7.90625 1.30475 7.79266 1.56706 7.59047 1.76045C7.38829 1.95385 7.11406 2.0625 6.82812 2.0625H2.15625V15.125H6.82812C7.11406 15.125 7.38829 15.2336 7.59047 15.427C7.79266 15.6204 7.90625 15.8827 7.90625 16.1562ZM17.6534 7.86414L14.0596 4.42664C13.8571 4.23291 13.5824 4.12407 13.296 4.12407C13.0095 4.12407 12.7348 4.23291 12.5323 4.42664C12.3298 4.62037 12.216 4.88313 12.216 5.15711C12.216 5.43109 12.3298 5.69385 12.5323 5.88758L14.2852 7.5625H6.82812C6.54219 7.5625 6.26796 7.67115 6.06578 7.86455C5.86359 8.05794 5.75 8.32025 5.75 8.59375C5.75 8.86725 5.86359 9.12956 6.06578 9.32295C6.26796 9.51635 6.54219 9.625 6.82812 9.625H14.2852L12.5314 11.3016C12.3289 11.4954 12.2151 11.7581 12.2151 12.0321C12.2151 12.3061 12.3289 12.5688 12.5314 12.7626C12.7339 12.9563 13.0086 13.0651 13.2951 13.0651C13.5815 13.0651 13.8562 12.9563 14.0587 12.7626L17.6525 9.32508C17.7531 9.22933 17.8329 9.11553 17.8874 8.99021C17.9419 8.86489 17.97 8.73051 17.97 8.59479C17.9701 8.45906 17.9422 8.32465 17.8879 8.19927C17.8335 8.07389 17.7538 7.96 17.6534 7.86414Z" fill="white"/>
</g>
<defs>
<clipPath id="clip0_152_153">
<rect width="17.9701" height="17.1875" fill="white"/>
</clipPath>
</defs>
</svg>
